<?xml version="1.0" encoding="UTF-8"?>
<svg id="Layer_1" data-name="Layer 1" xmlns="http://www.w3.org/2000/svg" viewBox="0 0 702.08 1149.03">
  <defs>
    <style>
      .cls-1 {
        fill: #fff;
      }

      .cls-2 {
        fill: #f7f7f7;
      }
    </style>
  </defs>
  <path class="cls-2" d="M69.8.24l559.73-.24c38.71,6,69.54,40.51,72.56,79.44v990.08c-3.7,42.65-40.59,78.1-83.5,79.5l-537.03-.05c-43.72-1.88-80.35-39.82-81.55-83.45V82.44C1.34,42.38,30.49,7.87,69.8.24ZM658.69,1102.63c10.58-11.18,15.41-23.74,16.39-39.11V83.44c-1.69-28.17-24.21-53.36-52.51-56.49H80.5c-29.39,2.16-52.36,27.52-54.5,56.5.91,329.91-1.63,660.04,1.27,989.8,5.36,24.21,26.05,45.03,51.23,47.77h544.07c13.94-1.38,26.62-8.35,36.11-18.39Z"/>
  <path class="cls-2" d="M365.04,444.98h117.5c3.11,0,12.19,4.02,15.19,5.81,13.9,8.28,20.32,21.81,21.35,37.65,1.16,17.86,1.38,46.36-.01,64.08-1.37,17.45-17.3,42.46-36.54,42.46h-118.5c.28,1.85.99,3.53,1.05,5.45,4.32,138.74-3.34,278.23-.06,417.04.62,13.8-19.31,19.34-25.86,7.88-.4-.69-2.13-5.5-2.13-5.87v-424.5h-117.5c-3.11,0-12.19-4.02-15.19-5.81-15.03-8.95-20.37-23.85-21.35-40.65-.97-16.62-1.92-62.88,3.29-76.81,4.22-11.29,20.83-26.74,33.26-26.74h117.5v-95.5c0-.34,2.06-4.8,2.54-5.46,3.68-5.11,12.35-6.73,17.84-3.91,2.4,1.23,7.63,7.83,7.63,10.37v94.5ZM223.78,472.22c-7.16,1.62-11.88,5.8-12.74,13.26-2.44,21.3,1.74,47.12.09,68.91,1.1,7.77,9.8,13.03,17.37,12.63h245.08c9.1-.72,15.66-3.61,16.5-13.5,1.88-22.06-1.5-46.71-.02-69.06-1.87-9.92-8.46-11.9-17.48-12.52l-248.81.28Z"/>
  <path class="cls-2" d="M338.83,78.28c103.29-9.94,159.74,117.32,81.68,185.68-69.06,60.47-176.98,9.8-175.46-81.46.87-51.97,41.32-99.17,93.78-104.22ZM337.04,158.48v-52.5c-59.66,11.38-85.9,83.38-45.51,130.01,42.74,49.35,125.22,27.09,137.06-36.96,7.8-42.2-21.89-86.11-64.55-92.05.08,13.5-.09,27.03-.04,40.54,0,2.37,1.1,4.52,1.07,6.9-.23,19.61-25.5,19.29-28.03,4.05Z"/>
  <path class="cls-2" d="M522.78,819.22c20.02-3.37,47.84,1.96,68.7-.18,15.31,3.95,14.89,23.83,0,27.87-21.12-1.87-47.34,2.77-67.85-.02-15.45-2.11-15.73-25.17-.85-27.67Z"/>
  <path class="cls-2" d="M522.77,662.21h69.53c14.12,3.56,13.67,25.61-.85,27.68-20.63,2.93-47.54-1.95-68.84.03-14.49-3.92-13.7-23.35.17-27.71Z"/>
  <path class="cls-2" d="M522.78,346.22c20.05-3.36,47.82,1.96,68.7-.18,14.96,3.78,15.03,24.11,0,27.87-20.51-2.29-49.17,3.38-68.7-.17-14.34-2.61-13.92-25.2,0-27.53Z"/>
  <path class="cls-2" d="M522.77,977.21h68.53c15.71,3.17,15.17,25.5-.85,27.68-20.51,2.79-46.72-1.85-67.85.02-14.66-3.84-13.8-23.33.16-27.71Z"/>
  <path class="cls-2" d="M522.77,188.21l68.71-.16c14.71,3.61,14.98,23.17,1.01,27.88h-68.88c-14.85-4.02-15.4-22.79-.84-27.71Z"/>
  <path class="cls-2" d="M102.36,823.3c1.84-2.19,6.3-4,9.18-4.31,20.54-2.22,44.95,1.58,65.91.09,14.49,2.06,14.64,25.01.03,27.84-20.39-2.07-47.27,3.03-66.87,0-10.56-1.63-14.94-15.63-8.24-23.62Z"/>
  <path class="cls-2" d="M110.78,188.22c19.59-3.3,47.11,1.78,67.53-.01,13.37,3.87,13.54,23.63.17,27.71l-69.73-.15c-13.37-5.31-12.43-25.12,2.03-27.55Z"/>
  <path class="cls-2" d="M109.77,662.21l69.56-.02c12.89,5.13,11.79,24.5-1.85,27.72-20.23-2.24-48.42,3.33-67.7-.17-13.57-2.46-13.98-24.21,0-27.53Z"/>
  <path class="cls-2" d="M109.78,346.22h68.53c13.72,3.97,13.42,24.52-.84,27.7l-67.71-.16c-13.45-4.46-14.03-23.52,0-27.53Z"/>
  <path class="cls-2" d="M110.78,977.22c9.87-1.66,56.65-1.66,66.52,0,14.67,2.46,14.57,24.65.18,27.7-20.26-2.07-47.24,3.1-66.7-.18-15.22-2.56-15.43-24.92,0-27.52Z"/>
  <path class="cls-2" d="M548.77,504.21c5.04-1.03,39.62-.98,44.3.24,12.87,3.35,12.89,25.23-1.59,27.47-7.93,1.23-31.53.89-39.97.1-17.48-1.64-16.74-24.96-2.73-27.81Z"/>
  <path class="cls-2" d="M158.69,507.33c8.06,7.31,4.73,22.55-6.39,24.41-6.83,1.14-35.83,1.22-42.52,0-13.76-2.5-14.04-24.68,0-27.53,6.41-1.3,33.65-1.04,40.77-.23,2.8.32,6.06,1.46,8.15,3.35Z"/>
  <path class="cls-1" d="M223.78,472.22l248.81-.28c9.02.62,15.61,2.6,17.48,12.52-1.48,22.35,1.9,47,.02,69.06-.84,9.89-7.4,12.79-16.5,13.5h-245.08c-7.57.4-16.26-4.85-17.37-12.63,1.65-21.79-2.53-47.61-.09-68.91.85-7.46,5.58-11.64,12.74-13.26Z"/>
  <path class="cls-1" d="M337.04,158.48c2.53,15.24,27.8,15.55,28.03-4.05.03-2.38-1.06-4.54-1.07-6.9-.05-13.51.12-27.04.04-40.54,42.66,5.95,72.35,49.86,64.55,92.05-11.84,64.06-94.32,86.31-137.06,36.96-40.38-46.63-14.15-118.63,45.51-130.01v52.5Z"/>
</svg>